<svg xmlns="http://www.w3.org/2000/svg" viewBox="13.5 16 883.8 549"><path d="M655.9 437c-10.2 0-18.5-8.3-18.5-18.5h5c0 7.4 6.1 13.5 13.5 13.5V437z"/><path d="M655.9 437v-5c16.3 0 29.5-13.2 29.5-29.5h5C690.4 421.5 674.9 437 655.9 437z"/><path d="M690.4 402.5h-5c0-25.1-20.4-45.5-45.5-45.5v-5C667.7 352 690.4 374.7 690.4 402.5z"/><path d="M562.4 434.5h-5c0-45.5 37-82.5 82.5-82.5v5C597.1 357 562.4 391.8 562.4 434.5z"/><path d="M687.9 565c-72 0-130.5-58.5-130.5-130.5h5c0 69.2 56.3 125.5 125.5 125.5V565z"/><path d="M687.9 565v-5c113.3 0 205.5-92.2 205.5-205.5h5C898.4 470.6 804 565 687.9 565z"/><path d="M18.5 562.5h-5c0-73.8 14.5-145.3 42.9-212.7 27.5-65.1 66.9-123.5 117.1-173.7C223.8 125.9 282.2 86.5 347.3 58.9 414.7 30.5 486.2 16 560 16v5C261.4 21 18.5 263.9 18.5 562.5z"/><path d="M898.5 354.5h-5C893.5 170.6 743.9 21 560 21v-5c90.4 0 175.4 35.2 239.4 99.1C863.3 179.1 898.5 264.1 898.5 354.5z"/><rect x="638.6" y="417.3" width="18.5" height="18.5" style="fill:#4C4B4C;opacity:0.9"/><rect x="638.6" y="401.3" width="18.5" height="18.5" style="fill:#F4F2F4;opacity:0.9"/><rect x="655.9" y="401.3" width="33.3" height="34.5" style="fill:#EADF1B;opacity:0.9"/><rect x="638.6" y="353.1" width="50.5" height="48" style="fill:#32CC12;opacity:0.9"/><rect x="557.4" y="352" width="82.3" height="84.8" style="fill:#15C8CC;opacity:0.9"/><rect x="558" y="435.5" width="131.1" height="129.3" style="fill:#1787CC;opacity:0.9"/><rect x="689.1" y="352" width="208.1" height="213" style="fill:#A919CC;opacity:0.9"/><rect x="555.6" y="16" width="341.6" height="337.1" style="fill:#DD1495;opacity:0.9"/><rect x="13.5" y="16" width="544.5" height="549" style="fill:#F70B22;opacity:0.9"/></svg>